<svg id="svg" version="1.1" width="400" height="400" xmlns="http://www.w3.org/2000/svg" xmlns:xlink="http://www.w3.org/1999/xlink" style="display: block;"><g id="svgg"><path id="path0" d="M0.000 195.000 L 0.000 390.000 200.000 390.000 L 400.000 390.000 400.000 195.000 L 400.000 0.000 200.000 0.000 L 0.000 0.000 0.000 195.000 M123.800 19.196 C 134.522 19.955,134.531 19.968,135.060 35.700 L 135.326 43.600 122.821 43.600 L 110.315 43.600 110.523 32.900 C 110.807 18.275,110.002 19.746,118.200 18.871 C 118.420 18.847,120.940 18.994,123.800 19.196 M178.114 19.908 C 181.102 20.899,181.662 23.426,182.150 38.100 L 182.333 43.600 169.366 43.600 L 156.400 43.600 156.413 35.500 C 156.434 22.559,156.845 20.853,160.164 19.952 C 164.825 18.686,174.362 18.663,178.114 19.908 M226.874 19.842 C 227.719 20.087,227.903 21.749,228.201 31.800 C 228.324 35.980,228.530 40.345,228.659 41.500 L 228.892 43.600 216.446 43.600 L 204.000 43.600 204.008 35.300 C 204.020 22.844,204.524 20.490,207.367 19.604 C 208.569 19.229,225.473 19.435,226.874 19.842 M274.908 19.960 C 275.188 20.229,275.764 29.739,276.104 39.700 L 276.237 43.600 263.918 43.600 L 251.600 43.600 251.608 34.500 C 251.615 26.249,251.988 20.679,252.571 20.095 C 253.411 19.256,274.045 19.130,274.908 19.960 M223.600 53.602 C 257.697 54.149,278.569 54.906,290.600 56.031 C 303.365 57.226,308.067 61.184,309.794 72.189 C 312.388 88.727,312.176 264.753,309.551 272.741 C 307.032 280.410,306.280 254.074,305.206 120.600 L 304.811 71.400 299.505 66.145 L 294.200 60.889 247.200 60.641 C 221.350 60.505,187.690 60.294,172.400 60.174 C 143.645 59.947,108.642 60.466,102.000 61.219 C 91.024 62.462,88.821 63.688,83.558 71.487 L 80.800 75.573 80.800 172.526 L 80.800 269.478 83.842 274.039 C 92.287 286.699,85.362 285.917,193.200 286.389 C 280.910 286.774,287.400 286.965,287.400 289.173 C 287.400 291.067,276.465 291.271,184.967 291.084 C 78.300 290.865,85.578 291.683,77.197 278.968 L 74.400 274.724 74.400 184.243 C 74.400 80.990,74.554 74.406,77.168 65.983 C 79.185 59.486,85.146 56.285,97.200 55.226 C 116.475 53.534,173.590 52.800,223.600 53.602 M63.600 101.841 L 63.600 114.082 53.900 113.901 C 39.471 113.631,39.255 113.512,38.375 105.279 C 37.609 98.119,38.702 91.041,40.649 90.552 C 42.391 90.115,49.462 89.722,56.700 89.659 L 63.600 89.600 63.600 101.841 M342.300 90.269 L 346.000 90.518 346.000 101.824 L 346.000 113.130 344.500 113.348 C 343.675 113.469,339.490 113.669,335.200 113.794 C 330.910 113.918,326.185 114.124,324.700 114.251 L 322.000 114.481 322.000 101.979 L 322.000 89.477 330.300 89.749 C 334.865 89.898,340.265 90.132,342.300 90.269 M225.600 115.399 C 273.909 122.974,301.261 176.074,278.862 218.800 C 253.101 267.940,183.615 271.235,153.865 224.728 C 143.337 208.270,140.249 185.666,145.978 166.993 C 154.023 140.771,177.714 119.208,202.400 115.636 C 204.050 115.398,205.850 115.136,206.400 115.056 C 209.316 114.628,222.143 114.857,225.600 115.399 M165.700 127.985 C 167.204 128.728,166.641 129.895,164.200 131.092 C 157.558 134.350,118.701 135.245,109.348 132.356 C 106.818 131.575,106.169 129.076,108.269 128.207 C 110.900 127.118,163.536 126.915,165.700 127.985 M207.400 128.672 C 196.288 129.624,182.001 135.808,174.700 142.826 C 171.040 146.345,172.044 146.328,179.695 142.743 C 191.266 137.322,208.717 135.223,227.600 136.980 C 231.010 137.298,235.960 137.753,238.600 137.992 C 244.608 138.537,245.076 138.729,247.566 141.674 C 251.167 145.932,253.436 145.598,220.867 145.612 C 173.599 145.633,168.985 146.742,162.297 159.688 C 160.563 163.043,160.845 163.449,163.504 161.429 C 171.709 155.199,193.923 152.188,224.040 153.225 C 252.041 154.189,265.493 157.495,267.380 163.876 C 268.023 166.053,267.028 166.091,236.400 165.034 C 208.177 164.061,181.632 164.750,167.553 166.823 C 157.868 168.248,159.172 167.683,157.831 171.034 C 152.763 183.692,156.035 204.037,165.512 218.800 C 183.711 247.150,223.234 254.371,250.137 234.262 C 275.624 215.209,281.127 180.640,263.112 152.752 C 260.936 149.383,260.478 148.774,257.600 145.430 C 250.305 136.951,239.911 131.085,229.600 129.625 C 222.746 128.656,212.650 128.222,207.400 128.672 M63.600 149.445 L 63.600 161.691 53.900 161.486 C 38.672 161.166,38.334 160.887,38.256 148.600 C 38.186 137.435,38.413 137.270,53.900 137.227 L 63.600 137.200 63.600 149.445 M342.659 137.866 L 345.918 138.112 346.207 145.450 C 346.843 161.566,347.053 161.331,331.900 161.531 L 322.000 161.662 322.000 149.368 L 322.000 137.075 330.700 137.348 C 335.485 137.498,340.866 137.731,342.659 137.866 M148.886 143.940 C 152.693 144.363,153.020 145.281,149.933 146.883 C 144.715 149.591,124.002 149.891,121.100 147.301 C 119.407 145.789,120.670 144.313,123.961 143.959 C 127.240 143.606,145.754 143.591,148.886 143.940 M143.663 162.303 C 144.782 163.422,140.142 167.600,137.781 167.600 C 135.552 167.600,136.099 162.626,138.403 161.936 C 139.725 161.541,143.139 161.779,143.663 162.303 M262.972 176.155 C 268.702 177.088,269.268 177.579,269.998 182.242 C 270.235 183.759,270.525 185.315,270.642 185.700 C 270.843 186.364,268.095 186.400,216.827 186.400 L 162.800 186.400 162.800 182.819 C 162.800 177.748,163.205 177.106,167.000 176.168 C 171.496 175.057,256.156 175.046,262.972 176.155 M63.250 187.000 C 63.388 188.540,63.523 193.962,63.550 199.048 L 63.600 208.297 61.300 208.537 C 46.474 210.088,40.203 208.964,38.889 204.519 C 37.650 200.331,37.985 189.903,39.429 187.700 C 41.135 185.096,47.258 184.010,59.400 184.157 L 63.000 184.200 63.250 187.000 M336.731 185.177 C 341.643 185.370,345.730 185.597,345.814 185.681 C 345.898 185.765,346.091 189.879,346.243 194.824 C 346.684 209.172,346.940 208.916,331.900 209.124 L 322.000 209.262 322.000 196.891 L 322.000 184.520 324.900 184.673 C 326.495 184.757,331.819 184.984,336.731 185.177 M138.309 197.810 C 143.389 199.319,142.407 202.298,136.689 202.725 C 131.740 203.095,128.849 201.265,130.131 198.575 C 130.903 196.957,134.351 196.635,138.309 197.810 M245.711 197.866 L 252.422 198.123 252.311 203.362 L 252.200 208.600 232.800 208.920 C 178.021 209.822,163.264 208.433,159.670 202.039 C 157.927 198.937,158.333 198.226,162.200 197.614 C 164.770 197.207,233.953 197.416,245.711 197.866 M61.500 231.456 L 63.600 231.692 63.600 243.646 L 63.600 255.600 57.300 255.592 C 47.335 255.580,40.814 254.506,39.427 252.650 C 37.918 250.630,38.088 236.878,39.666 233.416 C 40.729 231.083,50.437 230.211,61.500 231.456 M342.567 231.518 C 346.162 232.764,346.211 232.939,346.131 244.270 C 346.093 249.661,345.982 254.151,345.885 254.248 C 345.788 254.345,341.499 254.597,336.354 254.808 C 331.209 255.019,325.875 255.247,324.500 255.315 L 322.000 255.438 322.000 243.119 L 322.000 230.800 331.300 230.818 C 338.999 230.832,340.939 230.953,342.567 231.518 M272.721 240.908 C 274.549 242.667,284.200 253.959,284.200 254.339 C 284.200 254.715,278.782 259.666,276.600 261.284 C 273.059 263.909,270.275 261.705,260.277 248.362 C 258.869 246.483,258.672 246.851,262.930 243.425 C 268.859 238.657,270.060 238.348,272.721 240.908 M288.804 258.602 C 291.164 259.798,297.380 265.890,307.169 276.600 C 315.032 285.203,314.968 285.134,324.208 295.200 C 327.944 299.270,333.700 305.570,337.000 309.200 C 340.299 312.830,343.095 315.890,343.213 316.000 C 343.332 316.110,347.023 320.160,351.416 325.000 C 380.624 357.179,382.092 359.784,374.818 366.519 C 365.089 375.526,362.568 374.641,348.381 357.236 C 337.127 343.431,322.685 325.980,315.413 317.400 C 312.989 314.540,308.155 308.780,304.671 304.600 C 301.188 300.420,298.019 296.626,297.631 296.169 C 289.370 286.445,280.515 274.761,278.631 271.099 C 276.382 266.727,276.550 265.341,279.700 262.292 C 284.508 257.639,285.838 257.099,288.804 258.602 M228.331 311.500 C 228.148 325.353,227.569 326.416,219.745 327.266 C 213.362 327.960,206.657 326.775,205.580 324.763 C 204.129 322.052,203.322 304.680,204.568 302.976 C 205.098 302.252,205.849 302.185,215.868 301.975 C 221.770 301.850,227.019 301.715,227.531 301.675 L 228.462 301.600 228.331 311.500 M135.082 302.670 C 135.498 303.754,134.530 320.843,133.955 322.552 C 132.642 326.460,130.258 327.392,121.600 327.378 C 110.788 327.360,110.655 327.181,110.475 312.300 L 110.351 302.000 122.588 302.000 C 133.661 302.000,134.850 302.064,135.082 302.670 M181.719 308.300 C 182.155 319.584,181.410 324.142,178.828 325.980 C 175.929 328.044,161.721 327.841,158.845 325.694 C 157.106 324.396,155.691 313.106,156.364 305.912 C 156.739 301.915,155.728 302.176,171.237 302.070 L 181.475 302.000 181.719 308.300 M276.000 310.823 C 276.000 326.119,275.331 326.991,263.600 326.997 C 252.253 327.003,251.927 326.591,251.689 311.900 L 251.528 302.000 263.764 302.000 L 276.000 302.000 276.000 310.823 " stroke="none" fill="#ffffff" fill-rule="evenodd"></path><path id="path1" d="M181.800 175.606 C 162.732 176.054,162.800 176.029,162.800 182.622 L 162.800 186.400 216.639 186.400 L 270.479 186.400 270.212 183.900 C 269.536 177.568,269.056 177.115,262.000 176.161 C 256.893 175.471,203.306 175.100,181.800 175.606 M155.293 181.600 C 155.293 182.370,155.375 182.685,155.476 182.300 C 155.576 181.915,155.576 181.285,155.476 180.900 C 155.375 180.515,155.293 180.830,155.293 181.600 M273.693 184.400 C 273.693 185.170,273.775 185.485,273.876 185.100 C 273.976 184.715,273.976 184.085,273.876 183.700 C 273.775 183.315,273.693 183.630,273.693 184.400 M155.320 187.600 C 155.320 188.810,155.395 189.305,155.487 188.700 C 155.578 188.095,155.578 187.105,155.487 186.500 C 155.395 185.895,155.320 186.390,155.320 187.600 M256.378 229.100 L 255.000 230.600 256.500 229.222 C 257.896 227.938,258.184 227.600,257.878 227.600 C 257.812 227.600,257.137 228.275,256.378 229.100 M213.300 257.894 C 214.345 257.976,216.055 257.976,217.100 257.894 C 218.145 257.812,217.290 257.744,215.200 257.744 C 213.110 257.744,212.255 257.812,213.300 257.894 " stroke="none" fill="#fa5f63" fill-rule="evenodd"></path><path id="path2" d="M115.955 127.553 C 108.444 127.873,107.044 128.319,107.276 130.322 C 107.940 136.059,166.200 134.768,166.200 129.016 C 166.200 128.446,165.819 128.149,164.800 127.925 C 162.869 127.501,124.120 127.206,115.955 127.553 M202.800 137.067 C 202.250 137.153,199.820 137.499,197.400 137.836 C 190.433 138.804,185.475 140.216,180.400 142.677 C 177.870 143.905,174.971 145.109,173.958 145.354 C 172.353 145.743,171.854 146.146,170.084 148.486 L 168.053 151.173 170.726 149.827 C 175.766 147.290,182.284 146.160,195.000 145.618 C 199.620 145.422,203.859 145.085,204.421 144.870 C 205.125 144.601,205.684 144.623,206.221 144.940 C 207.110 145.465,241.365 145.859,246.300 145.401 C 249.965 145.061,250.030 144.607,246.900 141.222 L 244.600 138.734 240.600 138.386 C 238.400 138.194,233.990 137.760,230.800 137.420 C 225.483 136.853,205.734 136.604,202.800 137.067 M125.909 143.973 C 114.654 144.796,121.055 149.194,133.516 149.199 C 143.776 149.203,155.286 146.029,150.967 144.387 C 149.621 143.876,131.367 143.574,125.909 143.973 M197.800 153.627 C 177.372 155.244,170.044 156.919,164.034 161.344 C 162.647 162.365,161.279 163.200,160.995 163.200 C 160.511 163.200,160.003 164.246,159.184 166.927 C 158.858 167.998,158.895 168.044,159.920 167.835 C 173.414 165.086,204.090 163.831,234.600 164.780 C 242.740 165.033,252.743 165.346,256.830 165.475 C 267.417 165.808,269.074 165.022,265.537 161.344 C 261.676 157.331,251.237 154.944,231.800 153.631 C 224.613 153.146,203.909 153.143,197.800 153.627 M137.462 162.731 C 136.730 163.541,136.533 166.988,137.195 167.397 C 138.205 168.021,144.000 164.278,144.000 163.001 C 144.000 161.752,138.552 161.527,137.462 162.731 M130.670 197.917 C 128.479 200.355,130.978 202.610,135.832 202.576 C 141.799 202.535,143.677 198.921,138.294 197.837 C 134.415 197.056,131.416 197.087,130.670 197.917 M164.899 197.603 C 159.394 197.940,158.596 198.282,158.969 200.144 C 160.654 208.571,175.728 210.104,241.500 208.537 L 252.400 208.277 252.400 203.186 L 252.400 198.095 230.900 197.853 C 188.863 197.380,169.735 197.307,164.899 197.603 " stroke="none" fill="#00c37f" fill-rule="evenodd"></path><path id="path3" d="M115.200 19.204 C 110.502 19.729,110.795 18.873,110.523 32.900 L 110.315 43.600 122.821 43.600 L 135.326 43.600 135.060 35.700 C 134.630 22.924,134.165 21.123,131.052 20.183 C 129.394 19.683,119.785 18.702,118.200 18.871 C 117.980 18.894,116.630 19.044,115.200 19.204 M164.600 19.181 C 156.588 20.116,156.437 20.416,156.413 35.500 L 156.400 43.600 169.366 43.600 L 182.333 43.600 182.150 38.100 C 181.662 23.426,181.102 20.899,178.114 19.908 C 175.642 19.088,168.634 18.711,164.600 19.181 M207.367 19.604 C 204.524 20.490,204.020 22.844,204.008 35.300 L 204.000 43.600 216.446 43.600 L 228.892 43.600 228.659 41.500 C 228.530 40.345,228.324 35.980,228.201 31.800 C 227.903 21.749,227.719 20.087,226.874 19.842 C 225.473 19.435,208.569 19.229,207.367 19.604 M254.296 19.557 C 251.861 20.072,251.620 21.415,251.608 34.500 L 251.600 43.600 263.918 43.600 L 276.237 43.600 276.104 39.700 C 275.764 29.739,275.188 20.229,274.908 19.960 C 274.466 19.535,256.095 19.176,254.296 19.557 M138.400 53.627 C 82.124 54.602,78.082 55.840,75.788 72.800 C 74.553 81.935,74.400 94.234,74.400 184.243 L 74.400 274.724 77.197 278.968 C 82.174 286.519,84.334 288.122,91.200 289.357 C 99.554 290.860,102.488 290.915,184.967 291.084 C 276.465 291.271,287.400 291.067,287.400 289.173 C 287.400 286.965,280.910 286.774,193.200 286.389 C 85.362 285.917,92.287 286.699,83.842 274.039 L 80.800 269.478 80.800 172.526 L 80.800 75.573 83.558 71.487 C 88.821 63.688,91.024 62.462,102.000 61.219 C 108.642 60.466,143.645 59.947,172.400 60.174 C 187.690 60.294,221.350 60.505,247.200 60.641 L 294.200 60.889 299.505 66.145 L 304.811 71.400 305.206 120.600 C 306.139 236.576,306.896 271.868,308.486 273.458 C 310.250 275.222,310.704 268.608,311.235 233.400 C 312.153 172.554,311.344 82.069,309.794 72.189 C 308.067 61.184,303.365 57.226,290.600 56.031 C 266.921 53.816,194.001 52.664,138.400 53.627 M45.739 90.006 C 39.757 90.430,39.721 90.445,39.036 92.905 C 37.732 97.590,37.944 107.045,39.437 110.776 C 40.457 113.326,42.097 113.680,53.900 113.901 L 63.600 114.082 63.600 101.841 L 63.600 89.600 56.700 89.659 C 52.905 89.692,47.973 89.848,45.739 90.006 M322.000 101.979 L 322.000 114.481 324.700 114.251 C 326.185 114.124,330.910 113.918,335.200 113.794 C 339.490 113.669,343.675 113.469,344.500 113.348 L 346.000 113.130 346.000 101.824 L 346.000 90.518 342.300 90.269 C 340.265 90.132,334.865 89.898,330.300 89.749 L 322.000 89.477 322.000 101.979 M117.312 127.495 C 118.364 127.577,119.984 127.576,120.912 127.492 C 121.840 127.408,120.980 127.341,119.000 127.342 C 117.020 127.343,116.260 127.412,117.312 127.495 M152.915 127.496 C 154.188 127.576,156.168 127.575,157.315 127.494 C 158.462 127.414,157.420 127.349,155.000 127.350 C 152.580 127.351,151.642 127.416,152.915 127.496 M206.705 128.683 C 207.202 128.779,207.922 128.775,208.305 128.675 C 208.687 128.575,208.280 128.496,207.400 128.501 C 206.520 128.505,206.207 128.587,206.705 128.683 M218.905 128.687 C 219.514 128.779,220.414 128.777,220.905 128.682 C 221.397 128.587,220.900 128.511,219.800 128.514 C 218.700 128.517,218.297 128.595,218.905 128.687 M167.375 133.300 L 166.200 134.600 167.500 133.425 C 168.215 132.779,168.800 132.194,168.800 132.125 C 168.800 131.816,168.470 132.088,167.375 133.300 M265.000 135.600 C 266.971 137.580,268.673 139.200,268.783 139.200 C 268.893 139.200,267.371 137.580,265.400 135.600 C 263.429 133.620,261.727 132.000,261.617 132.000 C 261.507 132.000,263.029 133.620,265.000 135.600 M129.891 134.289 C 130.601 134.377,131.861 134.379,132.691 134.292 C 133.521 134.205,132.940 134.133,131.400 134.131 C 129.860 134.129,129.181 134.200,129.891 134.289 M211.521 136.699 C 213.788 136.770,217.388 136.770,219.521 136.698 C 221.655 136.626,219.800 136.568,215.400 136.568 C 211.000 136.568,209.255 136.627,211.521 136.699 M42.322 137.759 C 38.846 138.695,38.204 140.405,38.256 148.600 C 38.334 160.887,38.672 161.166,53.900 161.486 L 63.600 161.691 63.600 149.445 L 63.600 137.200 53.900 137.227 C 47.422 137.245,43.576 137.422,42.322 137.759 M322.000 149.368 L 322.000 161.662 331.900 161.531 C 347.053 161.331,346.843 161.566,346.207 145.450 L 345.918 138.112 342.659 137.866 C 340.866 137.731,335.485 137.498,330.700 137.348 L 322.000 137.075 322.000 149.368 M238.705 138.283 C 239.202 138.379,239.922 138.375,240.305 138.275 C 240.687 138.175,240.280 138.096,239.400 138.101 C 238.520 138.105,238.207 138.187,238.705 138.283 M126.900 143.887 C 127.505 143.978,128.495 143.978,129.100 143.887 C 129.705 143.795,129.210 143.720,128.000 143.720 C 126.790 143.720,126.295 143.795,126.900 143.887 M144.100 143.887 C 144.705 143.978,145.695 143.978,146.300 143.887 C 146.905 143.795,146.410 143.720,145.200 143.720 C 143.990 143.720,143.495 143.795,144.100 143.887 M205.082 144.651 C 204.956 144.778,203.896 145.020,202.726 145.191 C 201.038 145.436,201.588 145.499,205.400 145.494 C 208.584 145.490,209.527 145.403,208.200 145.237 C 207.100 145.099,206.000 144.859,205.756 144.704 C 205.511 144.549,205.208 144.525,205.082 144.651 M246.900 145.476 C 247.285 145.576,247.915 145.576,248.300 145.476 C 248.685 145.375,248.370 145.293,247.600 145.293 C 246.830 145.293,246.515 145.375,246.900 145.476 M212.311 153.093 C 213.251 153.178,214.691 153.177,215.511 153.091 C 216.330 153.005,215.560 152.936,213.800 152.937 C 212.040 152.939,211.370 153.009,212.311 153.093 M193.705 153.887 C 194.314 153.979,195.214 153.977,195.705 153.882 C 196.197 153.787,195.700 153.711,194.600 153.714 C 193.500 153.717,193.097 153.795,193.705 153.887 M233.900 153.882 C 234.395 153.978,235.205 153.978,235.700 153.882 C 236.195 153.787,235.790 153.709,234.800 153.709 C 233.810 153.709,233.405 153.787,233.900 153.882 M263.400 159.454 C 263.620 159.648,264.429 160.345,265.199 161.003 L 266.597 162.200 265.599 161.063 C 265.049 160.438,264.240 159.741,263.800 159.514 C 263.360 159.288,263.180 159.261,263.400 159.454 M139.900 161.882 C 140.395 161.978,141.205 161.978,141.700 161.882 C 142.195 161.787,141.790 161.709,140.800 161.709 C 139.810 161.709,139.405 161.787,139.900 161.882 M136.501 165.400 C 136.505 166.280,136.587 166.593,136.683 166.095 C 136.779 165.598,136.775 164.878,136.675 164.495 C 136.575 164.113,136.496 164.520,136.501 165.400 M267.200 164.300 C 267.200 164.538,266.705 164.914,266.100 165.135 C 265.495 165.356,265.281 165.551,265.624 165.568 C 266.454 165.610,267.878 164.545,267.499 164.166 C 267.335 164.001,267.200 164.062,267.200 164.300 M225.100 164.682 C 225.595 164.778,226.405 164.778,226.900 164.682 C 227.395 164.587,226.990 164.509,226.000 164.509 C 225.010 164.509,224.605 164.587,225.100 164.682 M187.700 165.091 C 188.525 165.178,189.875 165.178,190.700 165.091 C 191.525 165.005,190.850 164.934,189.200 164.934 C 187.550 164.934,186.875 165.005,187.700 165.091 M238.900 165.094 C 239.945 165.176,241.655 165.176,242.700 165.094 C 243.745 165.012,242.890 164.944,240.800 164.944 C 238.710 164.944,237.855 165.012,238.900 165.094 M175.505 165.883 C 176.002 165.979,176.722 165.975,177.105 165.875 C 177.487 165.775,177.080 165.696,176.200 165.701 C 175.320 165.705,175.007 165.787,175.505 165.883 M259.891 165.889 C 260.601 165.977,261.861 165.979,262.691 165.892 C 263.521 165.805,262.940 165.733,261.400 165.731 C 259.860 165.729,259.181 165.800,259.891 165.889 M187.900 175.496 C 189.275 175.574,191.525 175.574,192.900 175.496 C 194.275 175.418,193.150 175.354,190.400 175.354 C 187.650 175.354,186.525 175.418,187.900 175.496 M241.100 175.496 C 242.475 175.574,244.725 175.574,246.100 175.496 C 247.475 175.418,246.350 175.354,243.600 175.354 C 240.850 175.354,239.725 175.418,241.100 175.496 M286.514 182.600 C 286.517 183.700,286.595 184.103,286.687 183.495 C 286.779 182.886,286.777 181.986,286.682 181.495 C 286.587 181.003,286.511 181.500,286.514 182.600 M155.301 184.200 C 155.305 185.080,155.387 185.393,155.483 184.895 C 155.579 184.398,155.575 183.678,155.475 183.295 C 155.375 182.913,155.296 183.320,155.301 184.200 M51.000 184.400 C 38.973 185.119,37.384 186.927,38.177 199.000 C 38.839 209.084,42.325 210.522,61.300 208.537 L 63.600 208.297 63.550 199.048 C 63.523 193.962,63.388 188.540,63.250 187.000 L 63.000 184.200 59.400 184.157 C 57.420 184.133,53.640 184.242,51.000 184.400 M322.000 196.891 L 322.000 209.262 331.900 209.124 C 346.940 208.916,346.684 209.172,346.243 194.824 C 346.091 189.879,345.898 185.765,345.814 185.681 C 345.730 185.597,341.643 185.370,336.731 185.177 C 331.819 184.984,326.495 184.757,324.900 184.673 L 322.000 184.520 322.000 196.891 M273.740 188.800 C 273.740 190.670,273.809 191.435,273.893 190.500 C 273.977 189.565,273.977 188.035,273.893 187.100 C 273.809 186.165,273.740 186.930,273.740 188.800 M286.509 192.000 C 286.509 192.990,286.587 193.395,286.682 192.900 C 286.778 192.405,286.778 191.595,286.682 191.100 C 286.587 190.605,286.509 191.010,286.509 192.000 M143.293 192.800 C 143.293 193.570,143.375 193.885,143.476 193.500 C 143.576 193.115,143.576 192.485,143.476 192.100 C 143.375 191.715,143.293 192.030,143.293 192.800 M165.491 197.489 C 166.201 197.577,167.461 197.579,168.291 197.492 C 169.121 197.405,168.540 197.333,167.000 197.331 C 165.460 197.329,164.781 197.400,165.491 197.489 M191.300 197.499 C 194.765 197.566,200.435 197.566,203.900 197.499 C 207.365 197.433,204.530 197.378,197.600 197.378 C 190.670 197.378,187.835 197.433,191.300 197.499 M234.300 197.898 C 236.115 197.972,239.085 197.972,240.900 197.898 C 242.715 197.823,241.230 197.763,237.600 197.763 C 233.970 197.763,232.485 197.823,234.300 197.898 M180.505 208.687 C 181.114 208.779,182.014 208.777,182.505 208.682 C 182.997 208.587,182.500 208.511,181.400 208.514 C 180.300 208.517,179.897 208.595,180.505 208.687 M242.300 208.698 C 244.115 208.772,247.085 208.772,248.900 208.698 C 250.715 208.623,249.230 208.563,245.600 208.563 C 241.970 208.563,240.485 208.623,242.300 208.698 M191.500 209.082 C 191.995 209.178,192.805 209.178,193.300 209.082 C 193.795 208.987,193.390 208.909,192.400 208.909 C 191.410 208.909,191.005 208.987,191.500 209.082 M219.700 209.091 C 220.525 209.178,221.875 209.178,222.700 209.091 C 223.525 209.005,222.850 208.934,221.200 208.934 C 219.550 208.934,218.875 209.005,219.700 209.091 M44.483 231.183 C 41.565 231.643,40.181 232.285,39.666 233.416 C 38.088 236.878,37.918 250.630,39.427 252.650 C 40.814 254.506,47.335 255.580,57.300 255.592 L 63.600 255.600 63.600 243.646 L 63.600 231.692 61.500 231.456 C 57.638 231.021,46.625 230.844,44.483 231.183 M322.000 243.119 L 322.000 255.438 324.500 255.315 C 325.875 255.247,331.209 255.019,336.354 254.808 C 341.499 254.597,345.788 254.345,345.885 254.248 C 345.982 254.151,346.093 249.661,346.131 244.270 C 346.228 230.476,346.636 230.846,331.300 230.818 L 322.000 230.800 322.000 243.119 M267.375 234.500 L 266.200 235.800 267.500 234.625 C 268.215 233.979,268.800 233.394,268.800 233.325 C 268.800 233.016,268.470 233.288,267.375 234.500 M164.000 237.400 C 164.746 238.170,165.447 238.800,165.557 238.800 C 165.667 238.800,165.146 238.170,164.400 237.400 C 163.654 236.630,162.953 236.000,162.843 236.000 C 162.733 236.000,163.254 236.630,164.000 237.400 M270.843 239.700 C 270.939 239.755,272.094 240.790,273.409 242.000 L 275.800 244.200 273.614 241.900 C 272.411 240.635,271.256 239.600,271.047 239.600 C 270.838 239.600,270.746 239.645,270.843 239.700 M213.100 245.896 C 214.475 245.974,216.725 245.974,218.100 245.896 C 219.475 245.818,218.350 245.754,215.600 245.754 C 212.850 245.754,211.725 245.818,213.100 245.896 M280.575 257.700 L 279.400 259.000 280.700 257.825 C 281.415 257.179,282.000 256.594,282.000 256.525 C 282.000 256.216,281.670 256.488,280.575 257.700 M209.700 257.876 C 210.085 257.976,210.715 257.976,211.100 257.876 C 211.485 257.775,211.170 257.693,210.400 257.693 C 209.630 257.693,209.315 257.775,209.700 257.876 M278.975 262.900 L 277.800 264.200 279.100 263.025 C 279.815 262.379,280.400 261.794,280.400 261.725 C 280.400 261.416,280.070 261.688,278.975 262.900 M295.800 264.800 C 297.328 266.340,298.669 267.600,298.779 267.600 C 298.889 267.600,297.728 266.340,296.200 264.800 C 294.672 263.260,293.331 262.000,293.221 262.000 C 293.111 262.000,294.272 263.260,295.800 264.800 M303.000 272.400 C 303.859 273.280,304.652 274.000,304.762 274.000 C 304.872 274.000,304.259 273.280,303.400 272.400 C 302.541 271.520,301.748 270.800,301.638 270.800 C 301.528 270.800,302.141 271.520,303.000 272.400 M311.583 281.700 C 312.564 282.745,313.419 283.600,313.483 283.600 C 313.784 283.600,313.466 283.241,311.700 281.583 L 309.800 279.800 311.583 281.700 M320.383 291.300 C 322.041 293.066,322.400 293.384,322.400 293.083 C 322.400 293.019,321.545 292.164,320.500 291.183 L 318.600 289.400 320.383 291.300 M324.000 295.325 C 324.000 295.394,324.585 295.979,325.300 296.625 L 326.600 297.800 325.425 296.500 C 324.330 295.288,324.000 295.016,324.000 295.325 M329.183 300.900 C 330.164 301.945,331.019 302.800,331.083 302.800 C 331.384 302.800,331.066 302.441,329.300 300.783 L 327.400 299.000 329.183 300.900 M215.868 301.975 C 205.849 302.185,205.098 302.252,204.568 302.976 C 203.322 304.680,204.129 322.052,205.580 324.763 C 206.657 326.775,213.362 327.960,219.745 327.266 C 227.569 326.416,228.148 325.353,228.331 311.500 L 228.462 301.600 227.531 301.675 C 227.019 301.715,221.770 301.850,215.868 301.975 M110.475 312.300 C 110.655 327.181,110.788 327.360,121.600 327.378 C 130.258 327.392,132.642 326.460,133.955 322.552 C 134.530 320.843,135.498 303.754,135.082 302.670 C 134.850 302.064,133.661 302.000,122.588 302.000 L 110.351 302.000 110.475 312.300 M159.200 302.295 C 156.847 302.498,156.662 302.734,156.364 305.912 C 155.691 313.106,157.106 324.396,158.845 325.694 C 161.721 327.841,175.929 328.044,178.828 325.980 C 181.410 324.142,182.155 319.584,181.719 308.300 L 181.475 302.000 171.237 302.070 C 165.607 302.108,160.190 302.210,159.200 302.295 M251.689 311.900 C 251.927 326.591,252.253 327.003,263.600 326.997 C 275.331 326.991,276.000 326.119,276.000 310.823 L 276.000 302.000 263.764 302.000 L 251.528 302.000 251.689 311.900 M333.200 305.400 C 333.946 306.170,334.647 306.800,334.757 306.800 C 334.867 306.800,334.346 306.170,333.600 305.400 C 332.854 304.630,332.153 304.000,332.043 304.000 C 331.933 304.000,332.454 304.630,333.200 305.400 M336.800 309.325 C 336.800 309.394,337.385 309.979,338.100 310.625 L 339.400 311.800 338.225 310.500 C 337.130 309.288,336.800 309.016,336.800 309.325 M345.200 318.525 C 345.200 318.594,345.785 319.179,346.500 319.825 L 347.800 321.000 346.625 319.700 C 345.530 318.488,345.200 318.216,345.200 318.525 M350.200 324.000 C 351.059 324.880,351.852 325.600,351.962 325.600 C 352.072 325.600,351.459 324.880,350.600 324.000 C 349.741 323.120,348.948 322.400,348.838 322.400 C 348.728 322.400,349.341 323.120,350.200 324.000 M353.200 327.325 C 353.200 327.394,353.785 327.979,354.500 328.625 L 355.800 329.800 354.625 328.500 C 353.530 327.288,353.200 327.016,353.200 327.325 M357.200 331.725 C 357.200 331.794,357.785 332.379,358.500 333.025 L 359.800 334.200 358.625 332.900 C 357.530 331.688,357.200 331.416,357.200 331.725 M363.200 338.525 C 363.200 338.594,363.785 339.179,364.500 339.825 L 365.800 341.000 364.625 339.700 C 363.530 338.488,363.200 338.216,363.200 338.525 M375.186 365.900 L 373.000 368.200 375.300 366.014 C 377.437 363.982,377.783 363.600,377.486 363.600 C 377.424 363.600,376.389 364.635,375.186 365.900 M364.300 371.882 C 364.795 371.978,365.605 371.978,366.100 371.882 C 366.595 371.787,366.190 371.709,365.200 371.709 C 364.210 371.709,363.805 371.787,364.300 371.882 " stroke="none" fill="#71bede" fill-rule="evenodd"></path><path id="path4" d="M207.000 115.206 C 182.991 117.889,162.178 132.964,150.557 156.087 C 134.423 188.192,146.033 228.359,176.803 246.883 C 212.247 268.221,256.085 257.027,277.169 221.256 C 306.195 172.012,264.366 108.795,207.000 115.206 M229.435 129.345 C 263.647 134.577,284.665 179.897,268.188 212.901 C 243.331 262.687,170.902 254.272,157.146 200.000 C 154.478 189.470,154.667 178.360,157.642 170.910 C 158.325 169.200,159.204 166.808,159.595 165.595 C 161.217 160.564,163.855 155.761,166.623 152.800 C 167.343 152.030,169.109 149.780,170.546 147.800 C 171.984 145.820,173.523 143.729,173.967 143.153 C 177.452 138.627,194.127 130.356,202.546 128.977 C 206.919 128.261,223.863 128.493,229.435 129.345 M268.200 239.873 C 266.053 241.018,259.600 246.282,259.600 246.887 C 259.600 247.477,268.600 258.541,270.474 260.255 C 273.587 263.101,274.375 262.994,278.826 259.125 C 280.423 257.736,282.281 256.129,282.954 255.554 L 284.177 254.507 283.129 253.154 C 282.553 252.409,281.748 251.437,281.341 250.992 C 280.933 250.548,279.523 248.928,278.206 247.392 C 274.308 242.845,271.869 240.359,270.720 239.761 C 269.437 239.094,269.678 239.084,268.200 239.873 M284.200 258.756 C 277.722 262.821,276.157 266.371,278.784 271.040 C 281.025 275.024,288.980 285.536,296.460 294.400 C 306.058 305.773,340.372 347.020,350.157 358.945 C 362.550 374.050,365.289 374.983,373.886 367.023 C 381.324 360.136,380.381 357.879,360.843 335.801 C 358.117 332.720,354.877 329.108,353.643 327.774 C 352.409 326.439,348.970 322.664,346.000 319.384 C 343.030 316.104,339.340 312.059,337.800 310.395 C 336.260 308.732,332.390 304.501,329.200 300.993 C 326.010 297.485,322.140 293.254,320.600 291.591 C 319.060 289.927,316.989 287.674,315.999 286.583 C 290.891 258.939,287.975 256.387,284.200 258.756 " stroke="none" fill="#040507" fill-rule="evenodd"></path></g></svg>
